<svg width="645" height="106" viewBox="0 0 645 106" fill="none" xmlns="http://www.w3.org/2000/svg">
<g clip-path="url(#clip0_2_88)">
<path d="M176.727 54.5151V20.984L189.166 54.5151H199.388L211.773 20.984V54.5151H223.887V0H208.744L194.304 39.9128L179.756 0H164.613V54.5151H176.727ZM255.85 50.4048C256.012 51.7028 256.445 53.5416 257.581 54.5151H269.046C267.64 53.0548 266.775 50.513 266.775 46.5109V30.7188C266.775 18.5503 259.798 14.0073 249.739 14.0073C242.383 14.0073 234.65 16.8196 232.703 25.9055L242.275 29.0963C243.032 26.1759 244.817 23.2554 249.198 23.2554C253.957 23.2554 255.417 26.4463 255.417 28.9882V29.9076C253.416 30.827 250.982 31.2596 246.926 31.7464C237.354 32.8821 231.459 36.0189 231.459 44.5098C231.459 51.8109 237.462 55.6508 244.547 55.6508C249.252 55.6508 252.605 54.3528 255.85 50.4048ZM255.417 42.022C254.119 44.6721 250.766 47.1599 247.197 47.1599C243.952 47.1599 242.924 45.4833 242.816 43.7527C242.654 40.67 244.925 39.372 248.441 38.6689C252.226 37.9118 254.011 37.2628 255.417 36.722V42.022ZM286.839 54.5151V33.0984C286.839 26.7167 290.084 23.5258 294.032 23.5258C298.413 23.5258 300.089 26.1218 300.089 30.6647V54.5151H311.447V30.3402C311.447 20.984 308.039 14.0073 297.115 14.0073C292.41 14.0073 289.002 15.9543 286.136 20.8217V15.1431H275.482V54.5151H286.839ZM355.362 53.0008V15.1431H344.761V19.7401C342.49 15.9543 338.92 14.0073 334.432 14.0073C325.075 14.0073 317.504 20.6595 317.504 34.4505C317.504 48.2415 325.454 54.8936 334.81 54.8936C338.001 54.8936 341.733 54.0824 344.004 51.1079V53.163C344.004 58.2468 341.625 61.6539 335.946 61.6539C331.998 61.6539 329.835 60.5182 329.24 57.9763L318.261 57.0029C318.261 66.4132 327.779 70.4153 335.946 70.4153C349.791 70.4153 355.362 62.7897 355.362 53.0008ZM344.815 34.4505C344.815 42.1843 341.733 45.4292 336.865 45.4292C331.998 45.4292 328.861 42.1843 328.861 34.4505C328.861 26.7167 332.322 23.4718 336.811 23.4718C341.246 23.4718 344.815 26.7167 344.815 34.4505ZM386.134 50.4048C386.297 51.7028 386.783 53.5416 387.919 54.5151H399.331C397.978 53.0548 397.059 50.513 397.059 46.5109V30.7188C397.059 18.5503 390.082 14.0073 380.023 14.0073C372.668 14.0073 364.934 16.8196 362.987 25.9055L372.614 29.0963C373.371 26.1759 375.102 23.2554 379.482 23.2554C384.242 23.2554 385.702 26.4463 385.702 28.9882V29.9076C383.755 30.827 381.321 31.2596 377.211 31.7464C367.692 32.8821 361.797 36.0189 361.797 44.5098C361.797 51.8109 367.746 55.6508 374.885 55.6508C379.59 55.6508 382.889 54.3528 386.134 50.4048ZM385.702 42.022C384.404 44.6721 381.105 47.1599 377.535 47.1599C374.29 47.1599 373.209 45.4833 373.155 43.7527C372.992 40.67 375.264 39.372 378.725 38.6689C382.511 37.9118 384.35 37.2628 385.702 36.722V42.022ZM439.784 54.5151V20.0105L463.31 54.5151H475.587V0H463.743V34.5046L440.217 0H427.94V54.5151H439.784ZM521.178 38.074C521.178 37.9118 521.232 35.5862 521.232 33.2607C521.232 20.0646 512.201 14.0073 502.303 14.0073C492.244 14.0073 482.78 20.2809 482.78 34.8291C482.78 49.3772 492.136 55.6508 502.303 55.6508C511.768 55.6508 517.609 51.6487 520.529 43.8608L509.929 41.6435C509.064 44.1312 506.684 46.1864 503.061 46.1864C497.977 46.1864 494.407 43.5363 494.137 38.074H521.178ZM501.979 23.4718C506.414 23.4718 509.442 26.1759 509.713 30.3402H494.299C494.732 26.0677 498.193 23.4718 501.979 23.4718ZM535.023 54.5151L542.378 42.4006L549.788 54.5151H563.254L550.004 34.126L562.173 15.1431H549.409L542.973 26.3381L536.592 15.1431H522.909L535.618 34.3964L521.989 54.5151H535.023ZM593.162 15.1431V36.5597C593.162 42.9414 589.917 46.1323 585.969 46.1323C581.588 46.1323 579.912 43.5363 579.912 38.9934V15.1431H568.554V39.3179C568.554 48.6742 571.962 55.6508 582.886 55.6508C587.537 55.6508 590.944 53.7038 593.865 48.8364V54.5151H604.519V15.1431H593.162ZM610.576 43.1578C611.334 50.3507 617.391 55.6508 627.017 55.6508C636.374 55.6508 643.35 51.4324 643.35 42.7251C643.35 34.6127 637.293 31.8005 632.967 30.8811L623.989 28.9882C621.988 28.6096 621.122 27.582 621.122 26.2841C621.122 23.634 623.664 22.7146 626.801 22.7146C629.559 22.7146 632.372 23.7963 632.912 27.0412L642.431 25.3647C642.215 19.3615 636.536 14.0073 627.18 14.0073C619.067 14.0073 611.55 17.5768 611.55 26.5545C611.55 33.0984 616.039 36.722 621.177 37.8577L630.479 39.9128C632.101 40.2914 633.507 41.2108 633.507 42.9955C633.507 46.1864 630.316 46.9435 627.234 46.9435C623.015 46.9435 620.474 44.9966 620.041 41.5894L610.576 43.1578Z" fill="white"/>
<path d="M136.74 10.3912V90.023L134.82 90.8275C129.767 92.9164 124.009 93.9044 116.669 93.9044C115.343 93.9044 113.959 93.8762 112.435 93.8056C110.374 93.7209 108.3 93.5939 106.281 93.4527C102.965 93.2269 99.5207 93.0152 96.2039 93.0152C94.482 93.0152 92.9153 93.0717 91.4334 93.1846C86.197 93.5939 78.8859 95.09 73.7343 99.917L71.5889 101.893L69.4577 99.9029C64.2919 95.09 56.9808 93.5798 51.7586 93.1704C50.2625 93.0717 48.6958 93.0152 46.9739 93.0152C43.6571 93.0152 40.2133 93.241 36.8964 93.4527C34.8922 93.5798 32.8033 93.7209 30.7427 93.8056C29.2184 93.862 27.8352 93.9044 26.5085 93.9044C19.1832 93.9044 13.4106 92.9305 8.35771 90.8275L6.43819 90.023V10.3912H1.01837V97.9551C8.37182 101.004 17.9694 101.343 25.9157 101.004C33.8619 100.679 41.8223 99.7194 49.7544 100.34C55.4847 100.792 61.2997 102.147 66.282 104.928C69.5847 106.762 73.6072 106.762 76.9099 104.928C81.8922 102.161 87.7072 100.792 93.4376 100.34C101.37 99.7194 109.33 100.679 117.276 101.004C125.223 101.328 134.806 101.004 142.159 97.9551V10.3912H136.74Z" fill="url(#paint0_linear_2_88)"/>
<path d="M30.6157 90.6722C37.7433 90.3758 44.885 89.5149 51.9986 90.0794C59.1121 90.6299 66.3808 92.7611 71.5889 97.6305C76.7971 92.7611 84.0658 90.6299 91.1793 90.0794C98.2928 89.529 105.435 90.3758 112.562 90.6722C119.69 90.9686 127.029 90.6581 133.62 87.9341V0.680679C127.029 3.41882 119.69 3.71521 112.562 3.41882C105.435 3.12242 98.2928 2.26146 91.1793 2.82602C84.0658 3.39059 76.7971 5.5077 71.5889 10.3912C66.3808 5.5077 59.1121 3.39059 51.9986 2.82602C44.885 2.27557 37.7433 3.12242 30.6157 3.41882C23.4881 3.71521 16.1487 3.4047 9.55743 0.680679V87.9341C16.1487 90.6581 23.4881 90.9686 30.6157 90.6722ZM86.4652 67.0311H100.424V51.3927C97.3331 52.2113 94.1856 52.8323 90.9958 53.2557C90.9394 53.2557 90.897 53.2699 90.8406 53.2699C90.2619 53.2699 89.7538 52.8464 89.6832 52.2536C89.5985 51.6185 90.0502 51.0257 90.6853 50.941C93.9739 50.5176 97.2202 49.8542 100.41 48.9933V48.9792C100.41 48.9227 100.396 48.8804 100.396 48.8239V32.3104C99.9018 32.4092 99.3937 32.4939 98.8997 32.5927C95.47 33.256 91.9274 33.9476 88.3283 33.9476H88.2013C88.0481 33.9476 87.8964 33.9173 87.7551 33.8582C87.6137 33.7992 87.4855 33.7126 87.3778 33.6037C87.2702 33.4947 87.1852 33.3654 87.1279 33.2234C87.0706 33.0813 87.042 32.9293 87.0439 32.7762C87.0439 32.1269 87.5661 31.6188 88.2154 31.6188H88.3424C91.7157 31.6188 95.1454 30.9554 98.4763 30.3062C99.4502 30.1227 100.41 29.9251 101.384 29.7557C105.632 29.0077 110.6 28.4149 115.314 29.784C115.462 29.8275 115.599 29.8997 115.719 29.9963C115.838 30.0929 115.937 30.2122 116.011 30.3472C116.084 30.4822 116.13 30.6303 116.146 30.7831C116.163 30.9359 116.148 31.0904 116.105 31.2377C116.061 31.3851 115.989 31.5224 115.893 31.6419C115.796 31.7613 115.677 31.8606 115.542 31.934C115.407 32.0074 115.259 32.0535 115.106 32.0696C114.953 32.0858 114.798 32.0717 114.651 32.0281C110.741 30.8849 106.507 31.266 102.753 31.887V48.3017C105.336 47.5113 107.862 46.5798 110.346 45.493C110.627 45.3904 110.936 45.3988 111.211 45.5166C111.485 45.6344 111.704 45.8526 111.823 46.1266C111.942 46.4006 111.952 46.7097 111.851 46.9907C111.749 47.2717 111.544 47.5034 111.278 47.6383C108.497 48.8521 105.66 49.8683 102.767 50.7293V67.017H116.839L113.931 61.2161C113.807 60.9409 113.794 60.6284 113.895 60.3439C113.997 60.0594 114.204 59.8252 114.474 59.6902C114.744 59.5551 115.056 59.5299 115.344 59.6196C115.632 59.7094 115.875 59.9072 116.02 60.1717L119.775 67.6804C119.958 68.0473 119.93 68.4707 119.718 68.8236C119.506 69.1623 119.125 69.374 118.73 69.374H86.4652C85.816 69.374 85.2937 68.8518 85.2937 68.2026C85.3079 67.5533 85.8301 67.0311 86.4652 67.0311Z" fill="url(#paint1_linear_2_88)"/>
<path d="M171.538 84.6172C171.491 84.183 171.296 83.8449 170.951 83.603C170.61 83.361 170.165 83.2401 169.619 83.2401C169.234 83.2401 168.904 83.2981 168.629 83.4141C168.354 83.5301 168.144 83.6875 167.998 83.8864C167.852 84.0852 167.777 84.3123 167.774 84.5675C167.774 84.7796 167.822 84.9635 167.918 85.1193C168.018 85.2751 168.152 85.4077 168.321 85.517C168.49 85.6231 168.677 85.7126 168.883 85.7855C169.088 85.8584 169.295 85.9197 169.504 85.9695L170.459 86.2081C170.843 86.2976 171.213 86.4186 171.567 86.571C171.925 86.7235 172.245 86.9157 172.527 87.1477C172.812 87.3797 173.037 87.6598 173.203 87.9879C173.369 88.3161 173.452 88.7005 173.452 89.1413C173.452 89.7379 173.299 90.2633 172.994 90.7173C172.689 91.1681 172.249 91.5211 171.672 91.7763C171.098 92.0282 170.404 92.1541 169.589 92.1541C168.797 92.1541 168.109 92.0315 167.526 91.7862C166.946 91.541 166.491 91.183 166.163 90.7124C165.839 90.2417 165.663 89.6683 165.636 88.9922H167.451C167.478 89.3468 167.587 89.6418 167.779 89.8771C167.971 90.1125 168.222 90.2881 168.53 90.4041C168.841 90.5201 169.189 90.5781 169.574 90.5781C169.975 90.5781 170.326 90.5185 170.628 90.3991C170.933 90.2765 171.171 90.1075 171.344 89.892C171.516 89.6733 171.604 89.4181 171.607 89.1264C171.604 88.8613 171.526 88.6425 171.374 88.4702C171.221 88.2945 171.007 88.1487 170.732 88.0327C170.46 87.9134 170.142 87.8073 169.778 87.7145L168.619 87.4162C167.781 87.2008 167.118 86.8743 166.631 86.4368C166.147 85.996 165.905 85.411 165.905 84.6818C165.905 84.0819 166.067 83.5566 166.392 83.1058C166.72 82.6551 167.166 82.3054 167.729 82.0568C168.293 81.8049 168.931 81.679 169.643 81.679C170.366 81.679 170.999 81.8049 171.543 82.0568C172.089 82.3054 172.519 82.6518 172.83 83.0959C173.142 83.5367 173.303 84.0438 173.312 84.6172H171.538ZM184.314 81.8182H186.159V88.4702C186.159 89.1993 185.986 89.8407 185.642 90.3942C185.3 90.9477 184.82 91.3802 184.2 91.6918C183.58 92 182.856 92.1541 182.027 92.1541C181.196 92.1541 180.47 92 179.85 91.6918C179.23 91.3802 178.75 90.9477 178.408 90.3942C178.067 89.8407 177.896 89.1993 177.896 88.4702V81.8182H179.741V88.3161C179.741 88.7403 179.833 89.1181 180.019 89.4496C180.208 89.781 180.473 90.0412 180.814 90.2301C181.156 90.4157 181.56 90.5085 182.027 90.5085C182.495 90.5085 182.899 90.4157 183.241 90.2301C183.585 90.0412 183.85 89.781 184.036 89.4496C184.222 89.1181 184.314 88.7403 184.314 88.3161V81.8182ZM190.964 81.8182H193.221L196.243 89.196H196.363L199.386 81.8182H201.643V92H199.873V85.005H199.778L196.964 91.9702H195.642L192.828 84.9901H192.734V92H190.964V81.8182ZM206.451 92V81.8182H213.073V83.3643H208.296V86.1286H212.73V87.6747H208.296V90.4538H213.113V92H206.451ZM209.076 80.8139L210.19 78.5419H211.95L210.423 80.8139H209.076ZM217.755 92V81.8182H221.573C222.355 81.8182 223.012 81.9541 223.542 82.2259C224.076 82.4976 224.478 82.8788 224.75 83.3693C225.025 83.8565 225.163 84.425 225.163 85.0746C225.163 85.7275 225.024 86.2943 224.745 86.7749C224.47 87.2521 224.064 87.6217 223.527 87.8835C222.99 88.142 222.331 88.2713 221.548 88.2713H218.829V86.7401H221.3C221.757 86.7401 222.132 86.6771 222.423 86.5511C222.715 86.4219 222.93 86.2346 223.07 85.9893C223.212 85.7408 223.283 85.4358 223.283 85.0746C223.283 84.7133 223.212 84.4051 223.07 84.1499C222.927 83.8913 222.71 83.6958 222.418 83.5632C222.127 83.4273 221.751 83.3594 221.29 83.3594H219.6V92H217.755ZM223.015 87.3864L225.536 92H223.477L221.001 87.3864H223.015ZM236.482 85.0696C236.399 84.8011 236.284 84.5608 236.138 84.3487C235.996 84.1333 235.824 83.9493 235.621 83.7969C235.423 83.6444 235.194 83.5301 234.935 83.4538C234.677 83.3743 234.395 83.3345 234.09 83.3345C233.543 83.3345 233.056 83.4721 232.629 83.7472C232.201 84.0223 231.865 84.4266 231.619 84.9602C231.377 85.4905 231.256 86.1368 231.256 86.8991C231.256 87.6681 231.377 88.3194 231.619 88.853C231.861 89.3866 232.198 89.7926 232.629 90.071C233.059 90.3461 233.56 90.4837 234.13 90.4837C234.647 90.4837 235.094 90.3842 235.472 90.1854C235.853 89.9865 236.147 89.7048 236.352 89.3402C236.558 88.9723 236.661 88.5414 236.661 88.0476L237.078 88.1122H234.314V86.6705H238.445V87.8935C238.445 88.7652 238.26 89.5192 237.888 90.1555C237.517 90.7919 237.007 91.2824 236.357 91.6271C235.708 91.9685 234.962 92.1392 234.12 92.1392C233.182 92.1392 232.358 91.9287 231.649 91.5078C230.943 91.0836 230.391 90.482 229.994 89.7031C229.599 88.9209 229.402 87.9929 229.402 86.919C229.402 86.0971 229.518 85.3629 229.75 84.7166C229.985 84.0703 230.313 83.5218 230.734 83.071C231.155 82.617 231.649 82.2723 232.216 82.0369C232.783 81.7983 233.399 81.679 234.065 81.679C234.629 81.679 235.154 81.7618 235.641 81.9276C236.129 82.09 236.561 82.322 236.939 82.6236C237.32 82.9252 237.633 83.2831 237.879 83.6974C238.124 84.1117 238.285 84.5691 238.361 85.0696H236.482ZM243.029 92V81.8182H249.651V83.3643H244.873V86.1286H249.308V87.6747H244.873V90.4538H249.691V92H243.029ZM253.885 83.3643V81.8182H262.009V83.3643H258.862V92H257.032V83.3643H253.885ZM266.375 92V81.8182H272.997V83.3643H268.219V86.1286H272.654V87.6747H268.219V90.4538H273.037V92H266.375ZM283.952 92V81.8182H290.574V83.3643H285.796V86.1286H290.231V87.6747H285.796V90.4538H290.613V92H283.952ZM303.623 81.8182V92H301.982L297.184 85.0646H297.1V92H295.255V81.8182H296.906L301.699 88.7585H301.788V81.8182H303.623ZM314.705 92V81.8182H321.327V83.3643H316.549V86.1286H320.984V87.6747H316.549V90.4538H321.367V92H314.705ZM326.009 92V81.8182H327.853V90.4538H332.338V92H326.009ZM349.43 81.8182H351.274V88.4702C351.274 89.1993 351.102 89.8407 350.757 90.3942C350.416 90.9477 349.935 91.3802 349.315 91.6918C348.695 92 347.971 92.1541 347.143 92.1541C346.311 92.1541 345.585 92 344.965 91.6918C344.345 91.3802 343.865 90.9477 343.523 90.3942C343.182 89.8407 343.011 89.1993 343.011 88.4702V81.8182H344.856V88.3161C344.856 88.7403 344.949 89.1181 345.134 89.4496C345.323 89.781 345.588 90.0412 345.93 90.2301C346.271 90.4157 346.675 90.5085 347.143 90.5085C347.61 90.5085 348.014 90.4157 348.356 90.2301C348.7 90.0412 348.966 89.781 349.151 89.4496C349.337 89.1181 349.43 88.7403 349.43 88.3161V81.8182ZM364.446 81.8182V92H362.805L358.008 85.0646H357.923V92H356.079V81.8182H357.729L362.522 88.7585H362.612V81.8182H364.446ZM371.1 81.8182V92H369.256V81.8182H371.1ZM377.26 81.8182L379.91 89.8324H380.014L382.659 81.8182H384.687L381.098 92H378.821L375.236 81.8182H377.26ZM388.828 92V81.8182H395.451V83.3643H390.673V86.1286H395.108V87.6747H390.673V90.4538H395.49V92H388.828ZM400.132 92V81.8182H403.951C404.733 81.8182 405.389 81.9541 405.919 82.2259C406.453 82.4976 406.856 82.8788 407.127 83.3693C407.403 83.8565 407.54 84.425 407.54 85.0746C407.54 85.7275 407.401 86.2943 407.122 86.7749C406.847 87.2521 406.441 87.6217 405.904 87.8835C405.367 88.142 404.708 88.2713 403.926 88.2713H401.206V86.7401H403.677C404.135 86.7401 404.509 86.6771 404.801 86.5511C405.092 86.4219 405.308 86.2346 405.447 85.9893C405.59 85.7408 405.661 85.4358 405.661 85.0746C405.661 84.7133 405.59 84.4051 405.447 84.1499C405.305 83.8913 405.087 83.6958 404.796 83.5632C404.504 83.4273 404.128 83.3594 403.667 83.3594H401.977V92H400.132ZM405.392 87.3864L407.913 92H405.855L403.379 87.3864H405.392ZM417.571 84.6172C417.525 84.183 417.329 83.8449 416.985 83.603C416.643 83.361 416.199 83.2401 415.652 83.2401C415.268 83.2401 414.938 83.2981 414.663 83.4141C414.388 83.5301 414.177 83.6875 414.031 83.8864C413.886 84.0852 413.811 84.3123 413.808 84.5675C413.808 84.7796 413.856 84.9635 413.952 85.1193C414.051 85.2751 414.186 85.4077 414.355 85.517C414.524 85.6231 414.711 85.7126 414.916 85.7855C415.122 85.8584 415.329 85.9197 415.538 85.9695L416.492 86.2081C416.877 86.2976 417.246 86.4186 417.601 86.571C417.959 86.7235 418.279 86.9157 418.561 87.1477C418.846 87.3797 419.071 87.6598 419.237 87.9879C419.402 88.3161 419.485 88.7005 419.485 89.1413C419.485 89.7379 419.333 90.2633 419.028 90.7173C418.723 91.1681 418.282 91.5211 417.705 91.7763C417.132 92.0282 416.438 92.1541 415.622 92.1541C414.83 92.1541 414.143 92.0315 413.559 91.7862C412.979 91.541 412.525 91.183 412.197 90.7124C411.872 90.2417 411.696 89.6683 411.67 88.9922H413.485C413.511 89.3468 413.62 89.6418 413.813 89.8771C414.005 90.1125 414.255 90.2881 414.563 90.4041C414.875 90.5201 415.223 90.5781 415.607 90.5781C416.009 90.5781 416.36 90.5185 416.661 90.3991C416.966 90.2765 417.205 90.1075 417.377 89.892C417.55 89.6733 417.638 89.4181 417.641 89.1264C417.638 88.8613 417.56 88.6425 417.407 88.4702C417.255 88.2945 417.041 88.1487 416.766 88.0327C416.494 87.9134 416.176 87.8073 415.811 87.7145L414.653 87.4162C413.814 87.2008 413.151 86.8743 412.664 86.4368C412.18 85.996 411.938 85.411 411.938 84.6818C411.938 84.0819 412.101 83.5566 412.426 83.1058C412.754 82.6551 413.2 82.3054 413.763 82.0568C414.326 81.8049 414.964 81.679 415.677 81.679C416.4 81.679 417.033 81.8049 417.576 82.0568C418.123 82.3054 418.552 82.6518 418.864 83.0959C419.175 83.5367 419.336 84.0438 419.346 84.6172H417.571ZM433.028 86.9091C433.028 88.0062 432.822 88.9458 432.411 89.728C432.004 90.5069 431.447 91.1035 430.741 91.5178C430.038 91.9321 429.241 92.1392 428.349 92.1392C427.458 92.1392 426.659 91.9321 425.953 91.5178C425.25 91.1001 424.694 90.5019 424.283 89.723C423.875 88.9408 423.671 88.0028 423.671 86.9091C423.671 85.812 423.875 84.8741 424.283 84.0952C424.694 83.313 425.25 82.7147 425.953 82.3004C426.659 81.8861 427.458 81.679 428.349 81.679C429.241 81.679 430.038 81.8861 430.741 82.3004C431.447 82.7147 432.004 83.313 432.411 84.0952C432.822 84.8741 433.028 85.812 433.028 86.9091ZM431.173 86.9091C431.173 86.1368 431.052 85.4856 430.81 84.9553C430.572 84.4216 430.24 84.0189 429.816 83.7472C429.392 83.4721 428.903 83.3345 428.349 83.3345C427.796 83.3345 427.307 83.4721 426.883 83.7472C426.459 84.0189 426.125 84.4216 425.883 84.9553C425.645 85.4856 425.526 86.1368 425.526 86.9091C425.526 87.6813 425.645 88.3343 425.883 88.8679C426.125 89.3982 426.459 89.8009 426.883 90.076C427.307 90.3478 427.796 90.4837 428.349 90.4837C428.903 90.4837 429.392 90.3478 429.816 90.076C430.24 89.8009 430.572 89.3982 430.81 88.8679C431.052 88.3343 431.173 87.6813 431.173 86.9091ZM447.294 92H443.844V81.8182H447.364C448.375 81.8182 449.243 82.022 449.969 82.4297C450.698 82.834 451.258 83.4157 451.65 84.1747C452.041 84.9337 452.236 85.8419 452.236 86.8991C452.236 87.9598 452.039 88.8712 451.645 89.6335C451.253 90.3958 450.688 90.9808 449.949 91.3885C449.213 91.7962 448.328 92 447.294 92ZM445.689 90.4041H447.205C447.914 90.4041 448.506 90.2749 448.98 90.0163C449.454 89.7545 449.81 89.3651 450.049 88.848C450.287 88.3277 450.407 87.678 450.407 86.8991C450.407 86.1203 450.287 85.474 450.049 84.9602C449.81 84.4432 449.457 84.0571 448.99 83.8018C448.526 83.5433 447.949 83.4141 447.26 83.4141H445.689V90.4041ZM456.789 92V81.8182H463.411V83.3643H458.633V86.1286H463.068V87.6747H458.633V90.4538H463.451V92H456.789ZM468.093 92V81.8182H469.937V90.4538H474.421V92H468.093ZM485.095 81.8182H487.352L490.375 89.196H490.494L493.517 81.8182H495.774V92H494.004V85.005H493.91L491.096 91.9702H489.773L486.959 84.9901H486.865V92H485.095V81.8182ZM501.89 92H499.921L503.506 81.8182H505.783L509.372 92H507.403L504.684 83.9062H504.604L501.89 92ZM501.955 88.0078H507.324V89.4893H501.955V88.0078ZM521.88 81.8182V92H520.24L515.442 85.0646H515.358V92H513.513V81.8182H515.164L519.956 88.7585H520.046V81.8182H521.88ZM533.511 85.0696C533.428 84.8011 533.314 84.5608 533.168 84.3487C533.026 84.1333 532.853 83.9493 532.651 83.7969C532.452 83.6444 532.224 83.5301 531.965 83.4538C531.707 83.3743 531.425 83.3345 531.12 83.3345C530.573 83.3345 530.086 83.4721 529.658 83.7472C529.231 84.0223 528.894 84.4266 528.649 84.9602C528.407 85.4905 528.286 86.1368 528.286 86.8991C528.286 87.6681 528.407 88.3194 528.649 88.853C528.891 89.3866 529.227 89.7926 529.658 90.071C530.089 90.3461 530.59 90.4837 531.16 90.4837C531.677 90.4837 532.124 90.3842 532.502 90.1854C532.883 89.9865 533.176 89.7048 533.382 89.3402C533.587 88.9723 533.69 88.5414 533.69 88.0476L534.108 88.1122H531.344V86.6705H535.475V87.8935C535.475 88.7652 535.289 89.5192 534.918 90.1555C534.547 90.7919 534.037 91.2824 533.387 91.6271C532.737 91.9685 531.992 92.1392 531.15 92.1392C530.212 92.1392 529.388 91.9287 528.679 91.5078C527.973 91.0836 527.421 90.482 527.023 89.7031C526.629 88.9209 526.432 87.9929 526.432 86.919C526.432 86.0971 526.548 85.3629 526.78 84.7166C527.015 84.0703 527.343 83.5218 527.764 83.071C528.185 82.617 528.679 82.2723 529.246 82.0369C529.812 81.7983 530.429 81.679 531.095 81.679C531.658 81.679 532.184 81.7618 532.671 81.9276C533.158 82.09 533.591 82.322 533.969 82.6236C534.35 82.9252 534.663 83.2831 534.908 83.6974C535.154 84.1117 535.314 84.5691 535.39 85.0696H533.511ZM541.052 92H539.083L542.667 81.8182H544.944L548.534 92H546.565L543.846 83.9062H543.766L541.052 92ZM541.116 88.0078H546.486V89.4893H541.116V88.0078Z" fill="#D78507"/>
</g>
<defs>
<linearGradient id="paint0_linear_2_88" x1="-10.5893" y1="7.8179" x2="12781.1" y2="5972.7" gradientUnits="userSpaceOnUse">
<stop stop-color="#D88506"/>
<stop offset="1" stop-color="#61CBF2"/>
</linearGradient>
<linearGradient id="paint1_linear_2_88" x1="1.25352" y1="2.626" x2="11245.2" y2="5245.76" gradientUnits="userSpaceOnUse">
<stop stop-color="#D88506"/>
<stop offset="1" stop-color="#61CBF2"/>
</linearGradient>
<clipPath id="clip0_2_88">
<rect width="644.3" height="105.623" fill="white"/>
</clipPath>
</defs>
</svg>
